<svg xmlns="http://www.w3.org/2000/svg" viewBox="0 0 676 246.46">
  <g id="ab4b4306-cd9a-441e-bcc0-728a5b061ace" data-name="Layer 2">
    <g id="a701a6d2-6f9b-4d6f-8874-24b1284f60c1" data-name="Layer 2">
      <g>
        <path d="M34.78,127.91,45.43,24.7a92.65,92.65,0,0,0-12,3.95,35.21,35.21,0,0,0-8.3,4.56,15.09,15.09,0,0,1,5.59,5.84,15.4,15.4,0,0,1,2,7.38,15.07,15.07,0,0,1-1.34,6.25,17.43,17.43,0,0,1-3.58,5.23,16.59,16.59,0,0,1-5.28,3.53,15.94,15.94,0,0,1-6.31,1.29,14.57,14.57,0,0,1-6.76-1.54A15.78,15.78,0,0,1,4.39,57a18.39,18.39,0,0,1-3.18-5.9A21.75,21.75,0,0,1,.13,44.28a29.38,29.38,0,0,1,6-17.89q5.94-8,16.65-13.68A97,97,0,0,1,48.46,4,165.54,165.54,0,0,1,81.61.92a81.2,81.2,0,0,1,21.84,2.56,39.37,39.37,0,0,1,14.65,7.28A27.66,27.66,0,0,1,126.3,22a39.93,39.93,0,0,1,2.56,14.65,50.52,50.52,0,0,1-.82,8.25,58.83,58.83,0,0,1-2.71,10.15,54.71,54.71,0,0,1-5.18,10.51A39.8,39.8,0,0,1,112,74.92a38.86,38.86,0,0,1-11.53,6.61A40.81,40.81,0,0,1,85,83.84l-12.1-.21-4.71,44.28ZM97.09,37.1a13.49,13.49,0,0,0-5-11Q87.16,22,79.05,22l-4.2,40.58a24.31,24.31,0,0,0,11.07-3,20.63,20.63,0,0,0,6.76-6.25,23.79,23.79,0,0,0,3.44-8A37.49,37.49,0,0,0,97.09,37.1Z" style="fill: #fffefc"/>
        <path d="M211.75,4.41a38,38,0,0,1,13.8,7.27,37,37,0,0,1,8.72,10.8,46,46,0,0,1,4.57,13.21,79.06,79.06,0,0,1,1.33,14.6q0,2.66-.15,5.22c-.1,1.71-.22,3.38-.36,5s-.45,4-.72,6.65-.7,5.57-1.28,8.71-1.32,6.42-2.21,9.83a87,87,0,0,1-3.33,10.14,65.06,65.06,0,0,1-4.88,9.73,40.71,40.71,0,0,1-6.76,8.4,51.15,51.15,0,0,1-9,6.81A57,57,0,0,1,201,125.61a67.29,67.29,0,0,1-11.33,2.82,75.61,75.61,0,0,1-11.7.92,67.59,67.59,0,0,1-17-1.9,41.4,41.4,0,0,1-12.36-5.27,30.39,30.39,0,0,1-8.41-8.14,40,40,0,0,1-5.13-10.5,62.14,62.14,0,0,1-2.57-12.24,123.34,123.34,0,0,1-.71-13.57c0-2.25.06-4.93.2-8s.43-6.43.87-10,1.1-7.22,2-11a79.15,79.15,0,0,1,3.49-11.32,70.38,70.38,0,0,1,5.34-10.8,45.62,45.62,0,0,1,7.64-9.48A54.74,54.74,0,0,1,170.61,5.48,68.32,68.32,0,0,1,193.7,1.54a58.11,58.11,0,0,1,10.36.82A42.1,42.1,0,0,1,211.75,4.41ZM205.63,50.6a85.11,85.11,0,0,0-.51-9.47,27.53,27.53,0,0,0-2.05-8,14.13,14.13,0,0,0-4.25-5.58,11.36,11.36,0,0,0-7.13-2.1,13.92,13.92,0,0,0-8.61,2.86,27.67,27.67,0,0,0-6.71,7.58,51.14,51.14,0,0,0-4.92,10.59,103.51,103.51,0,0,0-3.28,12,107.33,107.33,0,0,0-1.84,11.77q-.57,5.68-.57,9.88a68.42,68.42,0,0,0,.62,9.16,29.83,29.83,0,0,0,2.2,8.14,15.66,15.66,0,0,0,4.3,5.83,10.29,10.29,0,0,0,6.82,2.26,14.07,14.07,0,0,0,8.71-2.87,27.86,27.86,0,0,0,6.72-7.52,50.58,50.58,0,0,0,4.92-10.6,99.3,99.3,0,0,0,3.22-12,119.5,119.5,0,0,0,1.8-11.82Q205.63,54.9,205.63,50.6Z" style="fill: #fffefc"/>
        <path d="M243.86,127.91,256.16,6.05c2.66-.69,5.48-1.35,8.46-2s6-1.21,9-1.69,6-.86,9-1.13,5.88-.41,8.61-.41a79.87,79.87,0,0,1,18.25,2,44.27,44.27,0,0,1,14.86,6.3,30.8,30.8,0,0,1,10,11.12A34.6,34.6,0,0,1,338,36.69v2.05a52.63,52.63,0,0,1-.92,7.18,53.31,53.31,0,0,1-2.77,9.43,57.51,57.51,0,0,1-5.18,10.09,39.53,39.53,0,0,1-19.62,15.84A43,43,0,0,1,294,83.84h-12.3l-4.41,44.07Zm40-65.29A23.79,23.79,0,0,0,295,59.75a20.35,20.35,0,0,0,6.82-6.25,23.71,23.71,0,0,0,3.43-8,38.32,38.32,0,0,0,1-8.36,31.46,31.46,0,0,0-.47-5.28,10.15,10.15,0,0,0-2.3-4.92A13.07,13.07,0,0,0,298,23.32a28,28,0,0,0-9.84-1.39l-3,28.7Z" style="fill: #fffefc"/>
        <path d="M337.85,127.91,350.14,6.05c2.67-.69,5.49-1.35,8.46-2s6-1.21,9-1.69,6-.86,9-1.13,5.87-.41,8.61-.41a79.72,79.72,0,0,1,18.24,2,44.18,44.18,0,0,1,14.86,6.3,30.74,30.74,0,0,1,10,11.12q3.63,6.82,3.63,16.45v2.05a49.63,49.63,0,0,1-.92,7.18,53.31,53.31,0,0,1-2.77,9.43,57.44,57.44,0,0,1-5.17,10.09,39.61,39.61,0,0,1-19.63,15.84A42.93,42.93,0,0,1,388,83.84H375.67l-4.41,44.07Zm40-65.29a23.83,23.83,0,0,0,11.12-2.87,20.41,20.41,0,0,0,6.81-6.25,23.74,23.74,0,0,0,3.44-8,38.29,38.29,0,0,0,1-8.36,31.42,31.42,0,0,0-.46-5.28,10.26,10.26,0,0,0-2.31-4.92A13.07,13.07,0,0,0,392,23.32a27.94,27.94,0,0,0-9.84-1.39l-3,28.7Z" style="fill: #fffefc"/>
        <path d="M436.75,1.84h37.82L493.43,51l4.3-11.48L515.16,1.64h26.65L505.63,78.41l-5.74,49.5h-36l5.74-50.63Z" style="fill: #fffefc"/>
        <path d="M574.3,19a25.79,25.79,0,0,1-6,16.91,54.82,54.82,0,0,1-15.94,12.81,4.49,4.49,0,0,1-.87-1.07c-.44-.65-.92-1.37-1.43-2.15s-1-1.54-1.44-2.26a7,7,0,0,1-.77-1.49,28,28,0,0,0,3.64-2.81,20.52,20.52,0,0,0,2.41-2.62,22.49,22.49,0,0,0,1.54-2.3,19.49,19.49,0,0,1,1.13-1.8,47.37,47.37,0,0,1-4.31-2.1,19.83,19.83,0,0,1-3.89-2.77,13.24,13.24,0,0,1-2.82-3.58,9.48,9.48,0,0,1-1.08-4.56,12.73,12.73,0,0,1,4.15-9.79q4.15-3.84,11.12-3.85T570.5,9.28A13,13,0,0,1,574.3,19Z" style="fill: #fffefc"/>
        <path d="M587.11,85.68a61.13,61.13,0,0,0,7.48,7.43A74.75,74.75,0,0,0,604,99.93a57.9,57.9,0,0,0,10.3,5,29.38,29.38,0,0,0,10.2,2q6.45,0,10.45-3.54t4-10a10.43,10.43,0,0,0-2.1-6.4,23.86,23.86,0,0,0-5.54-5.23A72.51,72.51,0,0,0,623.54,77q-4.35-2.3-9-5a103.75,103.75,0,0,1-9-5.79,40.05,40.05,0,0,1-7.79-7.33,35.22,35.22,0,0,1-5.54-9.58,34.12,34.12,0,0,1-2.1-12.45A30,30,0,0,1,593.62,23a35.9,35.9,0,0,1,9.94-11.79A50.56,50.56,0,0,1,619.5,3a70.18,70.18,0,0,1,21.42-3q2.46,0,6.3.26c2.56.17,5.28.47,8.15.92A83.07,83.07,0,0,1,664.08,3a46,46,0,0,1,8.2,3L668.9,38.23a59.94,59.94,0,0,0-5.79-4.36,78.9,78.9,0,0,0-8.61-5,72.67,72.67,0,0,0-10.1-4.15A32.65,32.65,0,0,0,634.26,23a11.79,11.79,0,0,0-6.82,1.74c-1.68,1.16-2.51,3.25-2.51,6.25a8.67,8.67,0,0,0,2.2,5.84,25.28,25.28,0,0,0,5.79,4.82,82.79,82.79,0,0,0,8.15,4.46q4.56,2.2,9.33,4.82a90.78,90.78,0,0,1,9.32,5.89,41.75,41.75,0,0,1,8.15,7.74,37.09,37.09,0,0,1,5.79,10.35,38.64,38.64,0,0,1,2.21,13.58,40.73,40.73,0,0,1-4.15,19,37.27,37.27,0,0,1-11.28,13.17,49.27,49.27,0,0,1-16.81,7.69,82.57,82.57,0,0,1-20.75,2.51,75.71,75.71,0,0,1-10.76-.82,91.68,91.68,0,0,1-11.17-2.3A61.42,61.42,0,0,1,591,124a22.57,22.57,0,0,1-7-4.82Z" style="fill: #fffefc"/>
        <path d="M54.06,244.51H27.56L36,162.64a27.24,27.24,0,0,0-8.68,1.47,20.65,20.65,0,0,0-7.54,5,12.42,12.42,0,0,1,4.48,4.65,11.75,11.75,0,0,1,.57,10.85A13.57,13.57,0,0,1,22,188.82a13.82,13.82,0,0,1-4.24,2.81,12.76,12.76,0,0,1-5,1,11.62,11.62,0,0,1-5.38-1.22,12.1,12.1,0,0,1-4-3.31,15.15,15.15,0,0,1-2.48-4.69A17.38,17.38,0,0,1,0,178a22.43,22.43,0,0,1,2.2-9.82,29.82,29.82,0,0,1,6.08-8.44,43.67,43.67,0,0,1,9.13-6.85,66.64,66.64,0,0,1,11.38-5.14,76.11,76.11,0,0,1,12.8-3.22A82,82,0,0,1,55,143.4c1.58,0,3.14,0,4.69.16s3.11.24,4.69.41Z" style="fill: #fffefc"/>
        <path d="M118.4,170.63a14.48,14.48,0,0,1,2.86-8.72,8.62,8.62,0,0,0-5.63-1.8,9.91,9.91,0,0,0-6.16,2.16,23.47,23.47,0,0,0-5.13,5.67,42.89,42.89,0,0,0-4.12,8.07,80.36,80.36,0,0,0-4.85,18.76,64.7,64.7,0,0,0-.62,8.4c0,.32,0,1.13,0,2.4a40.8,40.8,0,0,0,.36,4.49,38.65,38.65,0,0,0,1.14,5.46,18.92,18.92,0,0,0,2.41,5.3,13.34,13.34,0,0,0,4.12,4,11.57,11.57,0,0,0,6.28,1.59,19.61,19.61,0,0,0,7.54-1.31,17,17,0,0,0,5.42-3.5,22.31,22.31,0,0,0,3.92-5.1,67.22,67.22,0,0,0,3-6.07q4.91.24,9.79.44t9.78.37c-.32,1.91-.74,4-1.26,6.2a45.38,45.38,0,0,1-2.12,6.69,40.77,40.77,0,0,1-3.3,6.44,23.17,23.17,0,0,1-4.81,5.46,35.78,35.78,0,0,1-7.87,5,49.94,49.94,0,0,1-8.77,3.14,65.84,65.84,0,0,1-8.93,1.63,78.16,78.16,0,0,1-8.36.49A55.16,55.16,0,0,1,86.76,244a27.36,27.36,0,0,1-12.23-7.58,29.15,29.15,0,0,1-6.73-13,72.92,72.92,0,0,1-1.83-17,134.69,134.69,0,0,1,.9-15.57,80.3,80.3,0,0,1,3-14.72,60.75,60.75,0,0,1,5.67-12.93A38.44,38.44,0,0,1,84.4,152.9a39.66,39.66,0,0,1,12.52-6.85,51,51,0,0,1,16.67-2.49,47.35,47.35,0,0,1,9.46.94,43.87,43.87,0,0,1,8.6,2.61,33.14,33.14,0,0,1,7.06,4,17.75,17.75,0,0,1,4.73,5.1,31.9,31.9,0,0,1,3,6.81,25.86,25.86,0,0,1,1.15,7v1.47a15.08,15.08,0,0,1-1.31,5.38,13.87,13.87,0,0,1-3.1,4.4,14.93,14.93,0,0,1-4.52,3,13.94,13.94,0,0,1-5.51,1.1A14.69,14.69,0,0,1,122.68,181a14.91,14.91,0,0,1-3.14-4.65A14.36,14.36,0,0,1,118.4,170.63Z" style="fill: #fffefc"/>
        <path d="M160.81,144.21h62.62l-2.2,22.18H184.94L183,183.6h23.89l-2.37,18.67H181.19l-2,20.23h39.88l-2.2,22.18H151v-.17h-.41Z" style="fill: #fffefc"/>
        <path d="M304.73,170.63a14.61,14.61,0,0,1,.73-4.65,14.76,14.76,0,0,1,2.12-4.07,8.86,8.86,0,0,0-2.52-1.39A9.21,9.21,0,0,0,302,160a9.91,9.91,0,0,0-6.16,2.16,23.11,23.11,0,0,0-5.14,5.67,41.11,41.11,0,0,0-4.07,8.07,83.84,83.84,0,0,0-3,9.34,79.4,79.4,0,0,0-1.84,9.42,66.37,66.37,0,0,0-.61,8.4c0,.32,0,1.13.08,2.4s.21,2.78.45,4.49a36,36,0,0,0,1.27,5.46,20.28,20.28,0,0,0,2.48,5.3,13.75,13.75,0,0,0,4,4,10.83,10.83,0,0,0,6,1.59A19.41,19.41,0,0,0,303,225a17.38,17.38,0,0,0,5.42-3.5,22.71,22.71,0,0,0,3.91-5.06,54.81,54.81,0,0,0,2.94-6q9.78.24,19.57.73c-.33,1.91-.75,4-1.26,6.2a49,49,0,0,1-2.08,6.69,37.5,37.5,0,0,1-3.27,6.44A22.73,22.73,0,0,1,323.4,236a35.32,35.32,0,0,1-7.87,5,49.38,49.38,0,0,1-8.8,3.14,67.26,67.26,0,0,1-9,1.63,78.31,78.31,0,0,1-8.36.49A55.06,55.06,0,0,1,273,244a26.47,26.47,0,0,1-12.15-7.66,29.08,29.08,0,0,1-6.73-12.93,72.2,72.2,0,0,1-1.83-17,134.68,134.68,0,0,1,.89-15.57,83.77,83.77,0,0,1,3-14.72,58.79,58.79,0,0,1,5.67-13,39,39,0,0,1,8.85-10.36A40,40,0,0,1,283.2,146a55.62,55.62,0,0,1,30.3-.74,31.64,31.64,0,0,1,10.76,5.22,24.18,24.18,0,0,1,7.05,8.52A27.24,27.24,0,0,1,334,170.63a14.1,14.1,0,0,1-1.18,5.83,14.83,14.83,0,0,1-3.18,4.61,14.62,14.62,0,0,1-10.23,4.16,14.36,14.36,0,0,1-5.75-1.14A15.14,15.14,0,0,1,309,181a14.32,14.32,0,0,1-4.28-10.36Z" style="fill: #fffefc"/>
        <path d="M342.84,147.55a26.16,26.16,0,0,1,5.22-1.5q3.66-.78,8.36-1.43t9.9-1.06q5.22-.41,9.79-.41A39,39,0,0,1,390,145.39a31.28,31.28,0,0,1,9.76,5.71,23.57,23.57,0,0,1,5.85,7.75,22.27,22.27,0,0,1,2.13,8.44,29,29,0,0,1-1,8.89,30,30,0,0,1-3.36,7.74,28.49,28.49,0,0,1-5.07,6.16,24.37,24.37,0,0,1-6.26,4.2,11.64,11.64,0,0,1,5.69,5.06,15.71,15.71,0,0,1,1.92,7.82,52,52,0,0,1-.37,5.88,26.33,26.33,0,0,0,0,6.15,9.06,9.06,0,0,0,2.09,4.89c1.14,1.34,3.11,2,5.89,2a6.31,6.31,0,0,0,2.53-.49,8.82,8.82,0,0,0,2.28-1.46,25.18,25.18,0,0,0,2.37-2.37c.81-.92,1.71-2,2.69-3.18,1.08,1.31,2.2,2.61,3.34,3.92s2.26,2.6,3.34,3.91a25.6,25.6,0,0,1-4.6,8.15,34.11,34.11,0,0,1-6.85,6.28,32.7,32.7,0,0,1-8,4,24.75,24.75,0,0,1-8,1.43h-.17q-8.32.65-13.38-1.39a15.15,15.15,0,0,1-7.59-6.2,22.45,22.45,0,0,1-3-10.15,71.68,71.68,0,0,1,.36-13.25,23.56,23.56,0,0,0,0-5.06,9.52,9.52,0,0,0-1.3-3.91,6.78,6.78,0,0,0-2.86-2.53,10.2,10.2,0,0,0-4.52-.9l-4.32,41.59H333.05l8.32-82.36Zm29.81,13.3q-.88,0-2.28.12c-.92.08-1.71.18-2.36.28l-2.53,24.39h2.61a14.63,14.63,0,0,0,6.77-1.47,15.28,15.28,0,0,0,4.69-3.63,14.42,14.42,0,0,0,2.69-4.65,12.8,12.8,0,0,0,.77-4.61,11.46,11.46,0,0,0-.77-3.54,11.79,11.79,0,0,0-2-3.39,10.31,10.31,0,0,0-3.22-2.52A9.37,9.37,0,0,0,372.65,160.85Z" style="fill: #fffefc"/>
        <path d="M424.19,144.21h62.63l-2.2,22.18H448.33l-2,17.21h23.89l-2.36,18.67H444.58l-2,20.23H482.5l-2.21,22.18H414.41v-.17H414Z" style="fill: #fffefc"/>
        <path d="M532.64,230.81H505.49l-4.81,13.7H480.05q9.38-25.2,18.92-50.19t18.91-50.11h26.26L564,244.68H535ZM512,212.14h17.37l-5.62-32.86Z" style="fill: #fffefc"/>
        <path d="M564.61,244.51,587,144.21h24.3l10.6,63.93,27.57-63.93H676l-5.38,100.3h-26.5l3.75-52.76-20.8,52.76H606l-7.09-50.64-9.54,50.64Z" style="fill: #fffefc"/>
      </g>
    </g>
  </g>
</svg>
